<svg xmlns="http://www.w3.org/2000/svg" xmlns:xlink="http://www.w3.org/1999/xlink" preserveAspectRatio="xMidYMid" width="24.812" height="24.78" viewBox="0 0 24.812 24.78">
  <defs>
    <style>
      .cls-1 {
        fill: #000;
        filter: url(#color-overlay-1);
        fill-rule: evenodd;
      }
    </style>

    <filter id="color-overlay-1" filterUnits="userSpaceOnUse">
      <feFlood/>
      <feComposite operator="in" in2="SourceGraphic"/>
      <feBlend in2="SourceGraphic" result="solidFill"/>
    </filter>
  </defs>
  <path d="M3.196,-0.003 L21.623,-0.003 C23.373,-0.003 24.805,1.292 24.805,3.178 L24.805,21.602 C24.805,23.488 23.373,24.783 21.623,24.783 L3.196,24.783 C1.445,24.783 0.014,23.488 0.014,21.602 L0.014,3.178 C0.014,1.292 1.445,-0.003 3.196,-0.003 L3.196,-0.003 ZM18.073,2.750 C17.459,2.750 16.957,3.252 16.957,3.866 L16.957,6.537 C16.957,7.151 17.459,7.653 18.073,7.653 L20.875,7.653 C21.489,7.653 21.991,7.151 21.991,6.537 L21.991,3.866 C21.991,3.252 21.489,2.750 20.875,2.750 L18.073,2.750 L18.073,2.750 ZM22.003,10.479 L19.821,10.479 C20.027,11.152 20.139,11.866 20.139,12.605 C20.139,16.728 16.689,20.070 12.433,20.070 C8.177,20.070 4.727,16.728 4.727,12.605 C4.727,11.866 4.839,11.152 5.046,10.479 L2.769,10.479 L2.769,20.949 C2.769,21.490 3.212,21.934 3.754,21.934 L21.018,21.934 C21.560,21.934 22.003,21.491 22.003,20.949 L22.003,10.479 L22.003,10.479 ZM12.433,7.513 C9.683,7.513 7.454,9.672 7.454,12.336 C7.454,15.000 9.683,17.160 12.433,17.160 C15.182,17.160 17.412,15.000 17.412,12.336 C17.412,9.672 15.183,7.513 12.433,7.513 Z" class="cls-1"/>
</svg>
